<svg width="84" height="39" viewBox="0 0 84 39" fill="none" xmlns="http://www.w3.org/2000/svg">
<path d="M36 31V38.8591H36.756V35.607H38.4484C40.4004 35.607 41.7995 35.2168 41.7995 33.3198C41.7995 31.4444 40.4004 31 38.4484 31H36ZM38.55 31.6612C39.8927 31.6612 41.0097 31.8564 41.0097 33.3198C41.0097 34.7832 39.8927 34.935 38.55 34.935H36.756V31.6612H38.55Z" fill="black"/>
<path d="M43.5392 31H42.8397V38.8591H43.5392V31Z" fill="black"/>
<path d="M48.9767 38.8591H49.6763V33.0271H48.9767V36.3117C48.9767 37.5474 48.1644 38.393 47.2053 38.393C46.0206 38.393 45.7498 37.6558 45.7498 36.561V33.0271H45.0502V36.7453C45.0502 38.187 45.6257 39 47.0248 39C48.0741 39 48.6721 38.4688 48.9767 37.916V38.8591Z" fill="black"/>
<path d="M55.7347 34.6206C55.588 33.6992 54.708 32.9187 53.3991 32.9187C52.0339 32.9187 51.0748 33.6016 51.0748 34.523C51.0748 35.4336 51.8533 35.9106 52.7221 36.084L53.6699 36.2575C54.4936 36.4092 55.1706 36.6369 55.1706 37.3306C55.1706 38.1111 54.2566 38.4038 53.5232 38.4038C52.598 38.4038 51.8082 37.981 51.6841 37.0705H50.9507C51.1312 38.4038 52.2144 39 53.4668 39C54.7869 39 55.8814 38.3821 55.8814 37.2222C55.8814 36.1165 54.7757 35.7913 53.7827 35.6179L52.9252 35.4661C52.2482 35.3469 51.7856 35.0434 51.7856 34.4688C51.7856 33.7642 52.6657 33.5149 53.3314 33.5149C54.1889 33.5149 54.8546 33.9268 55.0013 34.6206H55.7347Z" fill="black"/>
<path d="M63.2695 38.8591V36.2358H66V35.5962H63.2695V33.0921H62.5586V35.5962H59.8281V36.2358H62.5586V38.8591H63.2695Z" fill="black"/>
<g clip-path="url(#clip0)">
<path fill-rule="evenodd" clip-rule="evenodd" d="M41.8016 14.2349H37.2809V10.2886H41.9523L42.0276 9.08054H36V20.7584H37.2809V15.3624H41.8016V14.2349ZM44.74 9.08054H43.5345V10.6107H44.74V9.08054ZM44.74 12.1409H43.5345V20.7584H44.74V12.1409ZM48.0552 9L46.8497 9.16107V17.1342C46.8497 19.953 46.9251 21 48.884 21C49.1854 21 49.4114 20.9195 49.7128 20.9195L49.6375 19.7919C49.2607 19.7919 49.1854 19.8725 48.9594 19.8725C48.1306 19.8725 48.0552 19.3087 48.0552 17.4564V9ZM54.0828 20.9195C51.8225 20.9195 50.3909 19.1477 50.3909 16.4094C50.3909 13.8322 51.8225 11.9799 53.9322 11.8993C55.8911 11.8993 57.172 13.5101 57.172 16.0067V16.5705H51.6718C51.6718 18.5034 52.7266 19.7114 54.1582 19.7114C55.0623 19.7114 55.9665 19.3893 56.7199 18.8255L57.0966 19.7919C56.3432 20.5168 55.3637 20.9195 54.0828 20.9195ZM51.6718 15.7651H55.9665C55.9665 13.9128 55.1377 13.0268 53.9322 13.0268C52.7266 13.0268 51.8225 14.1544 51.6718 15.7651ZM64.3298 20.1946C63.8024 20.7584 62.9736 21 62.1448 21C59.6584 21 58.3022 18.906 58.3022 16.4899C58.3022 14.0738 59.7337 11.9799 62.1448 11.9799C63.0489 11.9799 63.8777 12.302 64.3298 12.7047L64.0284 13.6711C63.501 13.2685 62.8229 13.1074 62.1448 13.1074C60.7132 13.1074 59.583 14.557 59.583 16.5705C59.583 18.5839 60.6379 19.953 62.2955 19.953C62.9736 19.953 63.5763 19.7114 64.1038 19.3087L64.3298 20.1946ZM71.4876 16.4899C71.4876 14.6376 70.8848 13.0268 69.0765 13.0268C67.3436 13.0268 66.5901 14.7181 66.5901 16.4899C66.5901 18.2617 67.4189 19.8725 69.1519 19.8725C70.8848 19.8725 71.4876 18.2617 71.4876 16.4899ZM72.7684 16.4899C72.7684 18.8255 71.4876 21 69.0765 21C66.6655 21 65.3093 18.9866 65.3093 16.5705C65.3093 14.1544 66.6655 12.0604 69.1519 12.0604C71.4876 11.9799 72.7684 13.9933 72.7684 16.4899ZM75.7069 9.08054H74.5014V10.6107H75.7069V9.08054ZM75.7069 12.1409H74.5014V20.7584H75.7069V12.1409ZM81.5085 11.9799C80.3783 11.9799 79.2481 12.5436 78.6454 13.4295L78.57 12.1409H77.5152V14.2349V20.7584H78.7207V14.8792C78.9468 14.0738 79.8509 13.1074 81.2071 13.1074C82.714 13.1074 82.7894 14.2349 82.7894 16.4899V20.7584H83.9949V15.604C84.0702 13.1879 83.3168 11.9799 81.5085 11.9799Z" fill="black"/>
<path d="M29.8417 17.1988C28.647 25.3529 21.0194 31.0332 12.8404 29.8422C4.66136 28.6511 -1.03638 20.9552 0.158307 12.8012C1.35299 4.64712 8.98061 -1.03321 17.1596 0.157824C25.3386 1.44048 31.0364 9.04481 29.8417 17.1988Z" fill="#0091FF"/>
<path d="M21.5965 5.68033C18.5638 3.75634 16.3582 7.97078 16.3582 8.0624C15.8069 9.0702 15.3474 10.7193 15.0717 11.9104L11.12 11.3607L10.9362 12.4601L14.796 13.0098C14.7041 13.5595 14.6122 13.926 14.6122 13.926L14.4284 15.117V15.2086L10.5686 14.6589L10.3848 15.7583L14.2446 16.3081C13.2337 21.3471 12.4985 22.9046 11.7633 23.7291C11.5795 23.9124 10.5686 24.6453 10.0172 23.3627C9.64962 22.4465 8.91443 22.6297 8.91443 22.6297C8.73063 22.6297 7.81164 23.1794 9.28203 24.1872C12.3147 26.1112 14.5203 21.8968 14.5203 21.8052C15.0717 20.7974 15.8069 17.9572 16.0826 16.6745L20.0342 17.2242L20.218 16.1248L16.2664 15.5751C16.3583 15.0254 16.4501 14.6589 16.4501 14.6589L16.6339 13.4679V13.3763L20.4937 13.926L20.6775 12.8266L16.8177 12.2768C17.8286 7.23784 18.2881 6.96298 19.0233 6.0468C19.2071 5.86356 20.218 5.13061 20.7694 6.41327C21.137 7.32945 21.8722 7.14622 21.8722 7.14622C22.1479 7.23784 23.0669 6.59651 21.5965 5.68033Z" fill="white"/>
</g>
<defs>
<clipPath id="clip0">
<rect width="84" height="30" fill="white"/>
</clipPath>
</defs>
</svg>
