<svg width="88" height="40" viewBox="0 0 88 40" fill="none" xmlns="http://www.w3.org/2000/svg">
<rect width="88" height="40" fill="white"/>
<g clip-path="url(#clip0)">
<rect width="84" height="30" transform="translate(2)" fill="white"/>
<path fill-rule="evenodd" clip-rule="evenodd" d="M43.8016 14.2349H39.2809V10.2886H43.9523L44.0276 9.08054H38V20.7584H39.2809V15.3624H43.8016V14.2349ZM46.74 9.08054H45.5345V10.6107H46.74V9.08054ZM46.74 12.1409H45.5345V20.7584H46.74V12.1409ZM50.0552 9L48.8497 9.16107V17.1342C48.8497 19.953 48.9251 21 50.884 21C51.1854 21 51.4114 20.9195 51.7128 20.9195L51.6375 19.7919C51.2608 19.7919 51.1854 19.8725 50.9594 19.8725C50.1306 19.8725 50.0552 19.3087 50.0552 17.4564V9ZM56.0828 20.9195C53.8225 20.9195 52.3909 19.1476 52.3909 16.4094C52.3909 13.8322 53.8225 11.9799 55.9322 11.8993C57.8911 11.8993 59.172 13.5101 59.172 16.0067V16.5705H53.6718C53.6718 18.5034 54.7266 19.7114 56.1582 19.7114C57.0623 19.7114 57.9665 19.3893 58.7199 18.8255L59.0967 19.7919C58.3432 20.5168 57.3637 20.9195 56.0828 20.9195ZM53.6718 15.7651H57.9665C57.9665 13.9128 57.1377 13.0268 55.9322 13.0268C54.7266 13.0268 53.8225 14.1544 53.6718 15.7651ZM66.3298 20.1946C65.8024 20.7584 64.9736 21 64.1448 21C61.6584 21 60.3022 18.906 60.3022 16.4899C60.3022 14.0738 61.7337 11.9799 64.1448 11.9799C65.0489 11.9799 65.8777 12.302 66.3298 12.7047L66.0284 13.6711C65.501 13.2685 64.8229 13.1074 64.1448 13.1074C62.7132 13.1074 61.583 14.557 61.583 16.5705C61.583 18.5839 62.6379 19.953 64.2955 19.953C64.9736 19.953 65.5763 19.7114 66.1038 19.3087L66.3298 20.1946ZM73.4876 16.4899C73.4876 14.6376 72.8848 13.0268 71.0765 13.0268C69.3436 13.0268 68.5901 14.7181 68.5901 16.4899C68.5901 18.2617 69.4189 19.8725 71.1519 19.8725C72.8848 19.8725 73.4876 18.2617 73.4876 16.4899ZM74.7685 16.4899C74.7685 18.8255 73.4876 21 71.0765 21C68.6655 21 67.3093 18.9866 67.3093 16.5705C67.3093 14.1544 68.6655 12.0604 71.1519 12.0604C73.4876 11.9799 74.7685 13.9933 74.7685 16.4899ZM77.7069 9.08054H76.5014V10.6107H77.7069V9.08054ZM77.7069 12.1409H76.5014V20.7584H77.7069V12.1409ZM83.5085 11.9799C82.3783 11.9799 81.2481 12.5436 80.6454 13.4295L80.57 12.1409H79.5152V14.2349V20.7584H80.7207V14.8792C80.9468 14.0738 81.8509 13.1074 83.2071 13.1074C84.714 13.1074 84.7894 14.2349 84.7894 16.4899V20.7584H85.9949V15.604C86.0702 13.1879 85.3168 11.9799 83.5085 11.9799Z" fill="black"/>
<path d="M31.8417 17.1988C30.647 25.3529 23.0194 31.0332 14.8404 29.8422C6.66136 28.6511 0.96362 20.9552 2.15831 12.8012C3.35299 4.64712 10.9806 -1.03321 19.1596 0.157824C27.3386 1.44048 33.0364 9.04481 31.8417 17.1988Z" fill="#0091FF"/>
<path d="M23.5965 5.68032C20.5638 3.75633 18.3583 7.97077 18.3583 8.06239C17.8069 9.07019 17.3474 10.7193 17.0717 11.9104L13.12 11.3607L12.9362 12.4601L16.796 13.0098C16.7041 13.5595 16.6122 13.926 16.6122 13.926L16.4284 15.117V15.2086L12.5686 14.6589L12.3848 15.7583L16.2446 16.308C15.2337 21.3471 14.4985 22.9046 13.7633 23.7291C13.5795 23.9124 12.5686 24.6453 12.0172 23.3627C11.6496 22.4465 10.9144 22.6297 10.9144 22.6297C10.7306 22.6297 9.81164 23.1794 11.282 24.1872C14.3147 26.1112 16.5203 21.8968 16.5203 21.8051C17.0717 20.7973 17.8069 17.9572 18.0826 16.6745L22.0342 17.2242L22.218 16.1248L18.2664 15.5751C18.3583 15.0254 18.4501 14.6589 18.4501 14.6589L18.6339 13.4679V13.3763L22.4937 13.926L22.6775 12.8265L18.8177 12.2768C19.8286 7.23783 20.2881 6.96297 21.0233 6.04679C21.2071 5.86355 22.218 5.13061 22.7694 6.41326C23.137 7.32945 23.8722 7.14621 23.8722 7.14621C24.1479 7.23783 25.0669 6.5965 23.5965 5.68032Z" fill="white"/>
</g>
<path d="M38 28V39.7886H39.1592V34.9106H41.7543C44.7473 34.9106 46.8926 34.3252 46.8926 31.4797C46.8926 28.6667 44.7473 28 41.7543 28H38ZM41.91 28.9919C43.9688 28.9919 45.6816 29.2846 45.6816 31.4797C45.6816 33.6748 43.9688 33.9024 41.91 33.9024H39.1592V28.9919H41.91Z" fill="black"/>
<path d="M49.5602 28H48.4875V39.7886H49.5602V28Z" fill="black"/>
<path d="M57.8977 39.7886H58.9703V31.0406H57.8977V35.9675C57.8977 37.8211 56.652 39.0894 55.1815 39.0894C53.3649 39.0894 52.9497 37.9837 52.9497 36.3415V31.0406H51.877V36.6179C51.877 38.7805 52.7593 40 54.9046 40C56.5136 40 57.4306 39.2033 57.8977 38.374V39.7886Z" fill="black"/>
<path d="M68.2599 33.4309C68.035 32.0488 66.6855 30.878 64.6787 30.878C62.5853 30.878 61.1147 31.9024 61.1147 33.2846C61.1147 34.6504 62.3084 35.3659 63.6406 35.626L65.0939 35.8862C66.3568 36.1138 67.3949 36.4553 67.3949 37.4959C67.3949 38.6667 65.9935 39.1057 64.869 39.1057C63.4503 39.1057 62.2392 38.4715 62.0489 37.1057H60.9244C61.2012 39.1057 62.8621 40 64.7825 40C66.8067 40 68.4848 39.0732 68.4848 37.3333C68.4848 35.6748 66.7894 35.187 65.2669 34.9268L63.952 34.6992C62.914 34.5203 62.2046 34.065 62.2046 33.2033C62.2046 32.1463 63.5541 31.7724 64.5748 31.7724C65.8897 31.7724 66.9105 32.3902 67.1354 33.4309H68.2599Z" fill="black"/>
<path d="M79.8132 39.7886V35.8537H84V34.8943H79.8132V31.1382H78.7233V34.8943H74.5365V35.8537H78.7233V39.7886H79.8132Z" fill="black"/>
<defs>
<clipPath id="clip0">
<rect width="84" height="30" fill="white" transform="translate(2)"/>
</clipPath>
</defs>
</svg>
